<svg xmlns="http://www.w3.org/2000/svg" version="1.1" xmlns:xlink="http://www.w3.org/1999/xlink" xmlns:svgjs="http://svgjs.dev/svgjs" viewBox="0 0 800 800"><defs><linearGradient x1="50%" y1="0%" x2="50%" y2="100%" id="ffflurry-grad" gradientTransform="rotate(270)"><stop stop-color="hsl(238, 82%, 13%)" stop-opacity="1" offset="0%"></stop><stop stop-color="hsl(230, 55%, 50%)" stop-opacity="1" offset="45%"></stop><stop stop-color="hsl(230, 55%, 70%)" stop-opacity="1" offset="100%"></stop></linearGradient></defs><rect width="100%" height="100%" fill="hsl(238, 82%, 13%)"></rect><g fill="url(#ffflurry-grad)"><rect width="634" height="1" x="411" y="195.5" rx="0.5" transform="rotate(34, 728, 196)" opacity="0.65"></rect><rect width="249" height="1" x="235.5" y="84.5" rx="0.5" transform="rotate(34, 360, 85)" opacity="0.42"></rect><rect width="889" height="1" x="-206.5" y="115.5" rx="0.5" transform="rotate(34, 238, 116)" opacity="0.69"></rect><rect width="746" height="1" x="-302" y="138.5" rx="0.5" transform="rotate(34, 71, 139)" opacity="0.29"></rect><rect width="62" height="1" x="12" y="405.5" rx="0.5" transform="rotate(34, 43, 406)" opacity="0.41"></rect><rect width="567" height="1" x="57.5" y="243.5" rx="0.5" transform="rotate(34, 341, 244)" opacity="0.69"></rect><rect width="322" height="1" x="-4" y="200.5" rx="0.5" transform="rotate(34, 157, 201)" opacity="0.47"></rect><rect width="257" height="1" x="512.5" y="496.5" rx="0.5" transform="rotate(34, 641, 497)" opacity="0.54"></rect><rect width="413" height="1" x="293.5" y="142.5" rx="0.5" transform="rotate(34, 500, 143)" opacity="0.16"></rect><rect width="412" height="1" x="-38" y="678.5" rx="0.5" transform="rotate(34, 168, 679)" opacity="0.14"></rect><rect width="455" height="1" x="-167.5" y="270.5" rx="0.5" transform="rotate(34, 60, 271)" opacity="0.92"></rect><rect width="631" height="1" x="301.5" y="396.5" rx="0.5" transform="rotate(34, 617, 397)" opacity="0.69"></rect><rect width="254" height="1" x="271" y="616.5" rx="0.5" transform="rotate(34, 398, 617)" opacity="0.22"></rect><rect width="413" height="1" x="207.5" y="317.5" rx="0.5" transform="rotate(34, 414, 318)" opacity="0.57"></rect><rect width="882" height="1" x="200" y="602.5" rx="0.5" transform="rotate(34, 641, 603)" opacity="0.66"></rect><rect width="321" height="1" x="382.5" y="402.5" rx="0.5" transform="rotate(34, 543, 403)" opacity="0.41"></rect><rect width="726" height="1" x="-228" y="402.5" rx="0.5" transform="rotate(34, 135, 403)" opacity="0.60"></rect><rect width="193" height="1" x="306.5" y="38.5" rx="0.5" transform="rotate(34, 403, 39)" opacity="0.52"></rect><rect width="421" height="1" x="112.5" y="149.5" rx="0.5" transform="rotate(34, 323, 150)" opacity="0.34"></rect><rect width="751" height="1" x="-90.5" y="579.5" rx="0.5" transform="rotate(34, 285, 580)" opacity="0.72"></rect><rect width="365" height="1" x="-61.5" y="597.5" rx="0.5" transform="rotate(34, 121, 598)" opacity="0.22"></rect><rect width="856" height="1" x="-255" y="521.5" rx="0.5" transform="rotate(34, 173, 522)" opacity="0.47"></rect><rect width="1023" height="1" x="238.5" y="573.5" rx="0.5" transform="rotate(34, 750, 574)" opacity="0.97"></rect><rect width="702" height="1" x="190" y="501.5" rx="0.5" transform="rotate(34, 541, 502)" opacity="0.38"></rect><rect width="240" height="1" x="657" y="80.5" rx="0.5" transform="rotate(34, 777, 81)" opacity="0.95"></rect><rect width="800" height="1" x="333" y="434.5" rx="0.5" transform="rotate(34, 733, 435)" opacity="0.20"></rect><rect width="1218" height="1" x="-16" y="195.5" rx="0.5" transform="rotate(34, 593, 196)" opacity="0.78"></rect><rect width="197" height="1" x="260.5" y="420.5" rx="0.5" transform="rotate(34, 359, 421)" opacity="0.97"></rect><rect width="942" height="1" x="-224" y="722.5" rx="0.5" transform="rotate(34, 247, 723)" opacity="0.16"></rect><rect width="462" height="1" x="-25" y="296.5" rx="0.5" transform="rotate(34, 206, 297)" opacity="0.56"></rect><rect width="44" height="1" x="554" y="65.5" rx="0.5" transform="rotate(34, 576, 66)" opacity="0.49"></rect><rect width="187" height="1" x="194.5" y="34.5" rx="0.5" transform="rotate(34, 288, 35)" opacity="0.49"></rect><rect width="106" height="1" x="435" y="19.5" rx="0.5" transform="rotate(34, 488, 20)" opacity="0.27"></rect><rect width="316" height="1" x="262" y="179.5" rx="0.5" transform="rotate(34, 420, 180)" opacity="0.22"></rect><rect width="222" height="1" x="-35" y="749.5" rx="0.5" transform="rotate(34, 76, 750)" opacity="0.84"></rect><rect width="891" height="1" x="-34.5" y="498.5" rx="0.5" transform="rotate(34, 411, 499)" opacity="0.81"></rect><rect width="357" height="1" x="136.5" y="340.5" rx="0.5" transform="rotate(34, 315, 341)" opacity="0.13"></rect><rect width="330" height="1" x="57" y="385.5" rx="0.5" transform="rotate(34, 222, 386)" opacity="0.60"></rect><rect width="483" height="1" x="485.5" y="117.5" rx="0.5" transform="rotate(34, 727, 118)" opacity="0.35"></rect><rect width="717" height="1" x="-86.5" y="473.5" rx="0.5" transform="rotate(34, 272, 474)" opacity="0.91"></rect><rect width="906" height="1" x="68" y="593.5" rx="0.5" transform="rotate(34, 521, 594)" opacity="0.24"></rect><rect width="677" height="1" x="-166.5" y="51.5" rx="0.5" transform="rotate(34, 172, 52)" opacity="0.70"></rect><rect width="491" height="1" x="518.5" y="316.5" rx="0.5" transform="rotate(34, 764, 317)" opacity="0.10"></rect><rect width="401" height="1" x="285.5" y="726.5" rx="0.5" transform="rotate(34, 486, 727)" opacity="0.35"></rect><rect width="910" height="1" x="230" y="291.5" rx="0.5" transform="rotate(34, 685, 292)" opacity="0.84"></rect><rect width="841" height="1" x="236.5" y="59.5" rx="0.5" transform="rotate(34, 657, 60)" opacity="0.93"></rect><rect width="96" height="1" x="433" y="72.5" rx="0.5" transform="rotate(34, 481, 73)" opacity="0.41"></rect><rect width="192" height="1" x="386" y="455.5" rx="0.5" transform="rotate(34, 482, 456)" opacity="0.18"></rect><rect width="347" height="1" x="-120.5" y="44.5" rx="0.5" transform="rotate(34, 53, 45)" opacity="0.57"></rect><rect width="863" height="1" x="-74.5" y="741.5" rx="0.5" transform="rotate(34, 357, 742)" opacity="0.40"></rect><rect width="414" height="1" x="263" y="378.5" rx="0.5" transform="rotate(34, 470, 379)" opacity="0.59"></rect><rect width="548" height="1" x="333" y="724.5" rx="0.5" transform="rotate(34, 607, 725)" opacity="0.49"></rect><rect width="735" height="1" x="-328.5" y="637.5" rx="0.5" transform="rotate(34, 39, 638)" opacity="0.49"></rect><rect width="235" height="1" x="616.5" y="726.5" rx="0.5" transform="rotate(34, 734, 727)" opacity="0.88"></rect><rect width="261" height="1" x="-75.5" y="515.5" rx="0.5" transform="rotate(34, 55, 516)" opacity="0.11"></rect><rect width="775" height="1" x="-138.5" y="209.5" rx="0.5" transform="rotate(34, 249, 210)" opacity="0.94"></rect><rect width="257" height="1" x="371.5" y="270.5" rx="0.5" transform="rotate(34, 500, 271)" opacity="0.52"></rect><rect width="30" height="1" x="731" y="25.5" rx="0.5" transform="rotate(34, 746, 26)" opacity="0.21"></rect><rect width="580" height="1" x="313" y="310.5" rx="0.5" transform="rotate(34, 603, 311)" opacity="0.68"></rect></g></svg>